<svg xmlns="http://www.w3.org/2000/svg" version="1.1" xmlns:xlink="http://www.w3.org/1999/xlink" xmlns:svgjs="http://svgjs.com/svgjs" width="1440" height="560" preserveAspectRatio="none" viewBox="0 0 1440 560"><g mask="url(&quot;#SvgjsMask2696&quot;)" fill="none"><rect width="1440" height="560" x="0" y="0" fill="url(#SvgjsLinearGradient2697)"></rect><path d="M1440 0L1345.06 0L1440 258.74z" fill="rgba(255, 255, 255, .1)"></path><path d="M1345.06 0L1440 258.74L1440 408.88L633.8 0z" fill="rgba(255, 255, 255, .075)"></path><path d="M633.8 0L1440 408.88L1440 464.39L606.9599999999999 0z" fill="rgba(255, 255, 255, .05)"></path><path d="M606.9599999999999 0L1440 464.39L1440 487.51L580.17 0z" fill="rgba(255, 255, 255, .025)"></path><path d="M0 560L272.18 560L0 375.98z" fill="rgba(0, 0, 0, .1)"></path><path d="M0 375.98L272.18 560L723.11 560L0 168.57000000000002z" fill="rgba(0, 0, 0, .075)"></path><path d="M0 168.57L723.11 560L736.28 560L0 108.66z" fill="rgba(0, 0, 0, .05)"></path><path d="M0 108.65999999999997L736.28 560L1048.29 560L0 81.52999999999997z" fill="rgba(0, 0, 0, .025)"></path></g><defs><mask id="SvgjsMask2696"><rect width="1440" height="560" fill="#ffffff"></rect></mask><linearGradient x1="100%" y1="50%" x2="0%" y2="50%" gradientUnits="userSpaceOnUse" id="SvgjsLinearGradient2697"><stop stop-color="rgba(22, 181, 167, 1)" offset="0"></stop><stop stop-color="rgba(7, 113, 248, 1)" offset="1"></stop></linearGradient></defs></svg>